<svg width="1334.46" height="212.06" viewBox="0 0 1334.46 212.06" xmlns="http://www.w3.org/2000/svg"><g id="svgGroup" stroke-linecap="round" fill-rule="evenodd" font-size="9pt" stroke="#000" stroke-width="0.25mm" fill="#ffffff" style="stroke:#000;stroke-width:0.25mm;fill:#ffffff"><path d="M 1042.36 172.5 L 1009.93 172.5 L 1009.93 54.05 L 1041.67 54.05 L 1041.67 72.45 Q 1055.7 50.83 1079.62 50.83 A 47.618 47.618 0 0 1 1090.908 52.107 A 36.309 36.309 0 0 1 1102.735 57.27 A 36.406 36.406 0 0 1 1116.084 73.792 A 44.646 44.646 0 0 1 1116.65 75.21 Q 1124.7 62.56 1134.705 56.695 A 42.855 42.855 0 0 1 1152.476 51.072 A 53.013 53.013 0 0 1 1157.59 50.83 A 51.395 51.395 0 0 1 1169.975 52.237 A 34.774 34.774 0 0 1 1187.375 62.215 Q 1198.07 73.6 1198.07 93.84 L 1198.07 172.5 L 1165.64 172.5 L 1165.64 98.9 A 31.804 31.804 0 0 0 1165.18 93.307 Q 1164.203 87.849 1161.155 84.41 A 14.768 14.768 0 0 0 1151.376 79.474 A 20.757 20.757 0 0 0 1149.08 79.35 A 23.219 23.219 0 0 0 1135.104 84.075 A 32.403 32.403 0 0 0 1131.485 87.17 Q 1123.55 94.99 1119.64 107.18 L 1119.64 172.5 L 1087.21 172.5 L 1087.21 98.9 A 29.663 29.663 0 0 0 1086.691 93.173 Q 1086.025 89.794 1084.507 87.161 A 15.941 15.941 0 0 0 1082.61 84.525 A 15.158 15.158 0 0 0 1072.045 79.412 A 20.907 20.907 0 0 0 1070.42 79.35 A 22.448 22.448 0 0 0 1059.362 82.339 A 31.432 31.432 0 0 0 1054.55 85.675 A 37.577 37.577 0 0 0 1047.143 94.141 Q 1044.444 98.289 1042.36 103.5 L 1042.36 172.5 Z M 811.44 172.5 L 778.09 172.5 L 778.09 19.32 L 811.44 19.32 L 811.44 78.66 L 861.35 19.32 L 901.14 19.32 L 838.12 92 L 897.92 172.5 L 857.44 172.5 L 811.44 110.63 L 811.44 172.5 Z M 622.61 172.5 L 590.18 172.5 L 590.18 54.05 L 621.92 54.05 L 621.92 74.52 Q 629.28 62.1 639.055 56.465 A 42.265 42.265 0 0 1 655.896 51.119 A 52.762 52.762 0 0 1 661.48 50.83 A 51.457 51.457 0 0 1 674.006 52.269 A 35.19 35.19 0 0 1 691.38 62.215 A 37.579 37.579 0 0 1 700.371 78.727 Q 701.934 84.581 702.154 91.535 A 72.988 72.988 0 0 1 702.19 93.84 L 702.19 172.5 L 669.76 172.5 L 669.76 98.9 A 31.029 31.029 0 0 0 669.288 93.307 Q 668.711 90.162 667.429 87.688 A 15.336 15.336 0 0 0 665.16 84.41 A 15.183 15.183 0 0 0 655.672 79.543 A 21.527 21.527 0 0 0 652.74 79.35 A 25.216 25.216 0 0 0 638.786 83.626 A 33.945 33.945 0 0 0 635.145 86.365 Q 626.98 93.38 622.61 103.73 L 622.61 172.5 Z M 338.1 167.44 L 341.09 139.84 A 75.73 75.73 0 0 0 355.864 146.833 A 85.681 85.681 0 0 0 358.34 147.66 Q 367.77 150.65 376.05 150.65 A 33.236 33.236 0 0 0 382.546 150.044 A 25.212 25.212 0 0 0 388.93 147.89 A 11.467 11.467 0 0 0 391.885 145.83 Q 394.37 143.379 394.447 139.624 A 11.783 11.783 0 0 0 394.45 139.38 A 7.899 7.899 0 0 0 393.029 134.671 Q 391.563 132.615 388.585 131.33 Q 382.746 128.811 370.638 124.241 A 1109.729 1109.729 0 0 0 370.53 124.2 Q 365.93 122.36 360.295 120.06 Q 354.66 117.76 349.6 113.965 Q 344.54 110.17 341.32 104.075 A 25.865 25.865 0 0 1 339.009 97.679 Q 338.1 93.667 338.1 88.78 A 40.346 40.346 0 0 1 339.226 79.017 A 30.315 30.315 0 0 1 344.425 67.965 A 37.313 37.313 0 0 1 356.565 57.637 A 47.181 47.181 0 0 1 361.79 55.2 Q 372.83 50.83 386.63 50.83 Q 396.06 50.83 405.145 52.67 Q 414.23 54.51 422.51 57.5 L 418.14 84.87 A 61.743 61.743 0 0 0 408.184 80.212 A 74.667 74.667 0 0 0 403.075 78.545 A 64.712 64.712 0 0 0 394.509 76.67 A 49.95 49.95 0 0 0 387.32 76.13 Q 380.19 76.13 375.475 78.545 A 9.67 9.67 0 0 0 372.864 80.44 Q 370.76 82.64 370.76 86.02 A 8.543 8.543 0 0 0 371.333 89.206 Q 372.106 91.148 373.922 92.531 A 9.73 9.73 0 0 0 373.98 92.575 Q 377.2 94.99 382.72 96.715 A 123.531 123.531 0 0 1 388.432 98.664 Q 391.523 99.798 394.91 101.2 Q 401.58 103.73 409.055 107.64 Q 416.53 111.55 421.82 118.68 A 24.642 24.642 0 0 1 425.617 126.527 Q 427.11 131.632 427.11 138.23 A 42.938 42.938 0 0 1 426.11 147.752 A 29.972 29.972 0 0 1 420.555 159.735 A 36.384 36.384 0 0 1 406.866 170.416 A 45.506 45.506 0 0 1 402.845 172.04 A 68.322 68.322 0 0 1 388.585 175.305 A 89.142 89.142 0 0 1 377.66 175.95 Q 366.39 175.95 355.925 173.65 A 86.877 86.877 0 0 1 347.362 171.329 Q 343.2 169.956 339.687 168.247 A 50.128 50.128 0 0 1 338.1 167.44 Z M 53.59 160.31 L 53.59 212.06 L 24.84 209.76 L 24.84 152.49 Q 24.84 138.457 21.302 131.139 A 17.585 17.585 0 0 0 19.205 127.765 Q 13.917 121.182 1.64 121.182 A 48.42 48.42 0 0 0 0 121.21 L 0 90.85 A 48.42 48.42 0 0 0 1.64 90.878 Q 9.229 90.878 14.148 88.363 A 15.36 15.36 0 0 0 19.205 84.295 A 19.528 19.528 0 0 0 22.177 78.866 Q 24.84 71.746 24.84 59.57 L 24.84 2.3 L 53.59 0 L 53.59 51.75 Q 53.59 60.379 53.186 67.187 A 160.721 160.721 0 0 1 52.9 71.185 Q 52.271 78.632 50.302 84.262 A 37.003 37.003 0 0 1 49.91 85.33 A 28.866 28.866 0 0 1 44.1 94.563 A 34.352 34.352 0 0 1 42.55 96.14 A 51.525 51.525 0 0 1 38.237 99.795 Q 35.848 101.619 32.951 103.475 A 109.256 109.256 0 0 1 28.75 106.03 A 97.179 97.179 0 0 1 34.788 109.809 Q 39.388 112.944 42.55 116.035 A 32.504 32.504 0 0 1 47.784 122.599 A 28.281 28.281 0 0 1 49.91 126.96 Q 52.21 132.94 52.9 140.99 Q 53.428 147.153 53.552 155.204 A 332.331 332.331 0 0 1 53.59 160.31 Z M 1309.62 209.76 L 1280.87 212.06 L 1280.87 160.31 A 311.932 311.932 0 0 1 1280.967 152.31 Q 1281.129 146.021 1281.56 140.99 Q 1282.201 133.506 1284.235 127.811 A 37.388 37.388 0 0 1 1284.55 126.96 Q 1286.85 120.98 1291.91 116.035 A 49.778 49.778 0 0 1 1296.222 112.31 Q 1300.248 109.193 1305.71 106.03 A 102.784 102.784 0 0 1 1299.701 102.287 Q 1296.887 100.386 1294.609 98.52 A 47.726 47.726 0 0 1 1291.91 96.14 A 31.036 31.036 0 0 1 1286.483 89.349 A 27.601 27.601 0 0 1 1284.55 85.33 A 42.634 42.634 0 0 1 1282.7 79.024 Q 1282.017 75.863 1281.659 72.261 A 73.249 73.249 0 0 1 1281.56 71.185 Q 1281.032 64.934 1280.908 56.862 A 333.573 333.573 0 0 1 1280.87 51.75 L 1280.87 0 L 1309.62 2.3 L 1309.62 59.57 Q 1309.62 77.28 1315.37 84.295 A 16.576 16.576 0 0 0 1322.973 89.426 Q 1327.172 90.878 1332.847 90.878 A 46.816 46.816 0 0 0 1334.46 90.85 L 1334.46 121.21 A 46.816 46.816 0 0 0 1332.847 121.182 Q 1325.037 121.182 1320.021 123.933 A 15.713 15.713 0 0 0 1315.37 127.765 Q 1309.62 134.78 1309.62 152.49 L 1309.62 209.76 Z M 314.64 56.35 L 314.64 172.5 L 283.82 172.5 L 284.51 153.64 L 283.59 153.64 A 51.102 51.102 0 0 1 275.362 165.164 A 34.533 34.533 0 0 1 249.55 175.95 A 33.227 33.227 0 0 1 223.858 164.692 A 44.083 44.083 0 0 1 220.455 160.425 A 54.398 54.398 0 0 1 212.844 144.133 Q 210.773 136.992 209.996 128.476 A 118.08 118.08 0 0 1 209.53 117.76 A 103.407 103.407 0 0 1 211.147 98.864 Q 213.148 88.11 217.626 79.677 A 51.507 51.507 0 0 1 226.09 67.965 A 53.47 53.47 0 0 1 250.765 53.685 Q 261.025 50.83 273.7 50.83 A 136.106 136.106 0 0 1 288.889 51.741 Q 296.278 52.573 304.489 54.166 A 262.688 262.688 0 0 1 314.64 56.35 Z M 988.54 172.5 L 914.25 172.5 L 914.25 144.67 L 936.33 144.67 L 936.33 81.88 L 914.25 81.88 L 914.25 54.05 L 968.76 54.05 L 968.76 144.67 L 988.54 144.67 L 988.54 172.5 Z M 119.6 171.12 L 128.34 143.29 Q 131.33 144.9 134.32 145.935 Q 137.31 146.97 140.53 146.97 A 13.551 13.551 0 0 0 144.19 146.501 A 10.035 10.035 0 0 0 148.925 143.635 Q 151.91 140.428 152.025 133.288 A 35.921 35.921 0 0 0 152.03 132.71 L 152.03 19.32 L 184.23 19.32 L 184.23 135.47 A 51.3 51.3 0 0 1 182.757 148.113 A 35.909 35.909 0 0 1 173.305 165.025 A 36.506 36.506 0 0 1 153.739 175.086 A 52.642 52.642 0 0 1 143.98 175.95 Q 138.23 175.95 131.905 174.8 Q 125.58 173.65 119.6 171.12 Z M 489.477 174.115 A 71.329 71.329 0 0 0 506 175.95 A 73.584 73.584 0 0 0 515.746 175.322 A 57.792 57.792 0 0 0 537.51 168.015 Q 551.08 160.08 558.555 145.82 A 62.987 62.987 0 0 0 564.276 129.891 A 80.701 80.701 0 0 0 566.03 112.7 Q 566.03 94.07 558.44 80.155 Q 550.85 66.24 537.395 58.535 A 56.206 56.206 0 0 0 521.768 52.523 A 72.363 72.363 0 0 0 505.77 50.83 A 74.651 74.651 0 0 0 496.024 51.449 A 58.37 58.37 0 0 0 474.26 58.65 Q 460.69 66.47 453.1 80.5 Q 445.51 94.53 445.51 113.39 A 82.169 82.169 0 0 0 446.49 126.322 A 62.151 62.151 0 0 0 453.1 146.28 Q 460.69 160.31 474.26 168.13 A 56.405 56.405 0 0 0 489.477 174.115 Z M 505.77 147.89 A 26.076 26.076 0 0 0 515.691 146.063 A 24.172 24.172 0 0 0 525.665 138.345 A 33.525 33.525 0 0 0 531.684 125.78 Q 532.912 120.957 533.104 115.288 A 62.872 62.872 0 0 0 533.14 113.16 Q 533.14 97.52 525.665 88.205 A 23.886 23.886 0 0 0 508.242 78.986 A 31.232 31.232 0 0 0 505.77 78.89 A 26.723 26.723 0 0 0 496.01 80.61 A 24.078 24.078 0 0 0 485.875 88.205 Q 479.036 96.727 478.454 110.543 A 62.167 62.167 0 0 0 478.4 113.16 Q 478.4 128.8 485.875 138.345 Q 493.35 147.89 505.77 147.89 Z M 283.36 119.83 L 283.36 81.19 Q 279.68 80.04 275.77 79.58 Q 271.86 79.12 268.64 79.12 A 29.13 29.13 0 0 0 255.819 81.749 Q 243.52 87.705 241.299 107.153 A 81.526 81.526 0 0 0 240.81 116.38 A 82.958 82.958 0 0 0 241.214 124.841 Q 242.104 133.493 244.95 139.265 A 20.427 20.427 0 0 0 247.455 143.228 Q 249.393 145.583 251.81 146.686 A 11.039 11.039 0 0 0 256.45 147.66 Q 262.921 147.66 268.891 141.808 A 34.678 34.678 0 0 0 270.94 139.61 Q 277.84 131.56 283.36 119.83 Z M 969.22 34.5 L 932.19 34.5 L 932.19 4.6 L 969.22 4.6 L 969.22 34.5 Z" vector-effect="non-scaling-stroke"/></g></svg>